<?xml version="1.0" standalone="no"?>
<!DOCTYPE svg PUBLIC "-//W3C//DTD SVG 20010904//EN"
 "http://www.w3.org/TR/2001/REC-SVG-20010904/DTD/svg10.dtd">
<svg version="1.0" xmlns="http://www.w3.org/2000/svg"
 width="300.000000pt" height="300.000000pt" viewBox="0 0 300.000000 300.000000"
 preserveAspectRatio="xMidYMid meet">

<g transform="translate(0.000000,300.000000) scale(0.100000,-0.100000)"
fill="#000000" stroke="none">
<path d="M492 905 c-14 -31 -15 -46 -2 -25 5 8 11 12 13 10 14 -15 77 -157 77
-172 0 -13 8 -18 27 -18 24 0 25 1 10 18 -8 9 -36 61 -61 115 -24 53 -47 97
-49 97 -2 0 -9 -11 -15 -25z"/>
<path d="M765 815 c0 -96 3 -115 15 -115 12 0 15 19 15 115 0 96 -3 115 -15
115 -12 0 -15 -19 -15 -115z"/>
<path d="M848 919 c6 -7 12 -29 12 -48 l1 -36 14 25 c11 20 11 29 1 44 -7 11
-19 22 -27 24 -11 4 -12 2 -1 -9z"/>
<path d="M1095 815 c0 -96 3 -115 15 -115 12 0 15 19 15 115 0 96 -3 115 -15
115 -12 0 -15 -19 -15 -115z"/>
<path d="M1295 815 l0 -115 25 1 c14 0 19 3 13 6 -9 3 -13 35 -13 108 0 73 4
105 13 108 6 3 1 6 -13 6 l-25 1 0 -115z"/>
<path d="M1635 815 c0 -96 3 -115 15 -115 12 0 15 19 15 115 0 96 -3 115 -15
115 -12 0 -15 -19 -15 -115z"/>
<path d="M1712 918 c9 -7 18 -29 20 -48 l4 -35 8 29 c10 34 -2 59 -30 64 -18
4 -18 3 -2 -10z"/>
<path d="M1958 921 c11 -6 13 -34 10 -115 l-3 -106 63 0 c53 0 62 3 61 18 0
10 -3 12 -6 5 -3 -8 -23 -13 -49 -13 l-44 0 0 104 c0 91 2 105 18 109 9 3 -1
5 -23 6 -26 0 -35 -2 -27 -8z"/>
<path d="M2040 926 c0 -2 9 -6 20 -9 11 -3 20 -1 20 4 0 5 -9 9 -20 9 -11 0
-20 -2 -20 -4z"/>
<path d="M2332 910 c7 -10 14 -18 15 -16 6 6 -9 36 -18 36 -5 0 -4 -9 3 -20z"/>
<path d="M2592 910 c14 -22 24 -19 15 5 -4 8 -11 15 -17 15 -6 0 -6 -7 2 -20z"/>
<path d="M1418 913 c39 -16 55 -123 25 -171 l-17 -27 27 24 c29 26 43 76 32
110 -8 27 -52 71 -68 70 -9 0 -8 -2 1 -6z"/>
<path d="M2240 905 c-19 -23 -3 -61 35 -85 43 -27 68 -61 59 -84 -3 -9 -2 -16
4 -16 14 0 20 32 11 57 -4 12 -26 34 -49 49 -39 26 -59 62 -45 83 9 16 -1 13
-15 -4z"/>
<path d="M2500 900 c-16 -31 -3 -58 40 -83 43 -24 64 -58 55 -91 -6 -21 -6
-21 9 -2 31 38 19 64 -49 106 -34 21 -53 58 -40 79 3 6 4 11 1 11 -3 0 -10 -9
-16 -20z"/>
<path d="M2056 831 c-4 -7 -5 -15 -2 -18 9 -9 19 4 14 18 -4 11 -6 11 -12 0z"/>
<path d="M867 768 c30 -39 58 -64 73 -66 20 -3 19 0 -13 28 -20 17 -46 47 -57
66 -12 19 -28 34 -37 34 -10 0 2 -22 34 -62z"/>
<path d="M1681 823 c9 -2 37 -31 63 -63 37 -48 51 -60 73 -59 19 0 23 3 13 7
-32 14 -58 38 -85 80 -21 33 -33 42 -54 41 -14 -1 -19 -3 -10 -6z"/>
<path d="M436 775 c-9 -26 -7 -32 5 -12 6 10 9 21 6 23 -2 3 -7 -2 -11 -11z"/>
<path d="M412 720 c-11 -17 -10 -20 7 -20 14 0 18 5 14 20 -3 11 -6 20 -7 20
-1 0 -7 -9 -14 -20z"/>
<path d="M2230 725 c0 -9 7 -18 15 -22 23 -8 24 0 3 20 -15 14 -18 15 -18 2z"/>
<path d="M2490 725 c0 -9 7 -18 15 -22 23 -8 24 0 3 20 -15 14 -18 15 -18 2z"/>
</g>
</svg>
